<svg class="border shadow-md" viewBox="0 0 1441.44 810.8100000000001" style="width: 1441.44px; height: 810.81px;" xmlns="http://www.w3.org/2000/svg" preserveAspectRatio="none"><rect class="bg" id="bg" x="0" y="0" width="1441.44" height="810.8100000000001" fill="#f8f8f8"/><rect x="0" y="0" width="59.53773913043478" height="59.53773913043478" rx="0" fill="#ffffff"/><rect x="62.67130434782609" y="0" width="59.53773913043478" height="59.53773913043478" rx="0" fill="#ffffff"/><rect x="125.34260869565217" y="0" width="59.53773913043478" height="59.53773913043478" rx="0" fill="#ffffff"/><rect x="188.01391304347825" y="0" width="59.53773913043478" height="59.53773913043478" rx="0" fill="#ffffff"/><rect x="250.68521739130435" y="0" width="59.53773913043478" height="59.53773913043478" rx="0" fill="#ffffff"/><rect x="313.3565217391304" y="0" width="59.53773913043478" height="59.53773913043478" rx="0" fill="#ffffff"/><rect x="376.0278260869565" y="0" width="59.53773913043478" height="59.53773913043478" rx="0" fill="#ffffff"/><rect x="438.6991304347826" y="0" width="59.53773913043478" height="59.53773913043478" rx="0" fill="#ffffff"/><rect x="501.3704347826087" y="0" width="59.53773913043478" height="59.53773913043478" rx="0" fill="#ffffff"/><rect x="564.0417391304347" y="0" width="59.53773913043478" height="59.53773913043478" rx="0" fill="#ffffff"/><rect x="626.7130434782608" y="0" width="59.53773913043478" height="59.53773913043478" rx="0" fill="#ffffff"/><rect x="689.3843478260869" y="0" width="59.53773913043478" height="59.53773913043478" rx="0" fill="#ffffff"/><rect x="752.055652173913" y="0" width="59.53773913043478" height="59.53773913043478" rx="0" fill="#ffffff"/><rect x="814.7269565217391" y="0" width="59.53773913043478" height="59.53773913043478" rx="0" fill="#ffffff"/><rect x="877.3982608695652" y="0" width="59.53773913043478" height="59.53773913043478" rx="0" fill="#ffffff"/><rect x="940.0695652173913" y="0" width="59.53773913043478" height="59.53773913043478" rx="0" fill="#ffffff"/><rect x="1002.7408695652174" y="0" width="59.53773913043478" height="59.53773913043478" rx="0" fill="#ffffff"/><rect x="1065.4121739130435" y="0" width="59.53773913043478" height="59.53773913043478" rx="0" fill="#ffffff"/><rect x="1128.0834782608695" y="0" width="59.53773913043478" height="59.53773913043478" rx="0" fill="#ffffff"/><rect x="1190.7547826086957" y="0" width="59.53773913043478" height="59.53773913043478" rx="0" fill="#ffffff"/><rect x="1253.4260869565217" y="0" width="59.53773913043478" height="59.53773913043478" rx="0" fill="#ffffff"/><rect x="1316.0973913043479" y="0" width="59.53773913043478" height="59.53773913043478" rx="0" fill="#ffffff"/><rect x="1378.7686956521738" y="0" width="59.53773913043478" height="59.53773913043478" rx="0" fill="#ffffff"/><rect x="0" y="62.67130434782609" width="59.53773913043478" height="59.53773913043478" rx="0" fill="#ffffff"/><rect x="62.67130434782609" y="62.67130434782609" width="59.53773913043478" height="59.53773913043478" rx="0" fill="#ffffff"/><rect x="125.34260869565217" y="62.67130434782609" width="59.53773913043478" height="59.53773913043478" rx="0" fill="#ffffff"/><rect x="188.01391304347825" y="62.67130434782609" width="59.53773913043478" height="59.53773913043478" rx="0" fill="#ffffff"/><rect x="250.68521739130435" y="62.67130434782609" width="59.53773913043478" height="59.53773913043478" rx="0" fill="#ffffff"/><rect x="313.3565217391304" y="62.67130434782609" width="59.53773913043478" height="59.53773913043478" rx="0" fill="#ffffff"/><rect x="376.0278260869565" y="62.67130434782609" width="59.53773913043478" height="59.53773913043478" rx="0" fill="#ffffff"/><rect x="438.6991304347826" y="62.67130434782609" width="59.53773913043478" height="59.53773913043478" rx="0" fill="#ffffff"/><rect x="501.3704347826087" y="62.67130434782609" width="59.53773913043478" height="59.53773913043478" rx="0" fill="#ffffff"/><rect x="564.0417391304347" y="62.67130434782609" width="59.53773913043478" height="59.53773913043478" rx="0" fill="#ffffff"/><rect x="626.7130434782608" y="62.67130434782609" width="59.53773913043478" height="59.53773913043478" rx="0" fill="#ffffff"/><rect x="689.3843478260869" y="62.67130434782609" width="59.53773913043478" height="59.53773913043478" rx="0" fill="#ffffff"/><rect x="752.055652173913" y="62.67130434782609" width="59.53773913043478" height="59.53773913043478" rx="0" fill="#ffffff"/><rect x="814.7269565217391" y="62.67130434782609" width="59.53773913043478" height="59.53773913043478" rx="0" fill="#ffffff"/><rect x="877.3982608695652" y="62.67130434782609" width="59.53773913043478" height="59.53773913043478" rx="0" fill="#ffffff"/><rect x="940.0695652173913" y="62.67130434782609" width="59.53773913043478" height="59.53773913043478" rx="0" fill="#ffffff"/><rect x="1002.7408695652174" y="62.67130434782609" width="59.53773913043478" height="59.53773913043478" rx="0" fill="#ffffff"/><rect x="1065.4121739130435" y="62.67130434782609" width="59.53773913043478" height="59.53773913043478" rx="0" fill="#ffffff"/><rect x="1128.0834782608695" y="62.67130434782609" width="59.53773913043478" height="59.53773913043478" rx="0" fill="#ffffff"/><rect x="1190.7547826086957" y="62.67130434782609" width="59.53773913043478" height="59.53773913043478" rx="0" fill="#ffffff"/><rect x="1253.4260869565217" y="62.67130434782609" width="59.53773913043478" height="59.53773913043478" rx="0" fill="#ffffff"/><rect x="1316.0973913043479" y="62.67130434782609" width="59.53773913043478" height="59.53773913043478" rx="0" fill="#ffffff"/><rect x="1378.7686956521738" y="62.67130434782609" width="59.53773913043478" height="59.53773913043478" rx="0" fill="#ffffff"/><rect x="0" y="125.34260869565217" width="59.53773913043478" height="59.53773913043478" rx="0" fill="#ffffff"/><rect x="62.67130434782609" y="125.34260869565217" width="59.53773913043478" height="59.53773913043478" rx="0" fill="#ffffff"/><rect x="125.34260869565217" y="125.34260869565217" width="59.53773913043478" height="59.53773913043478" rx="0" fill="#ffffff"/><rect x="188.01391304347825" y="125.34260869565217" width="59.53773913043478" height="59.53773913043478" rx="0" fill="#ffffff"/><rect x="250.68521739130435" y="125.34260869565217" width="59.53773913043478" height="59.53773913043478" rx="0" fill="#ffffff"/><rect x="313.3565217391304" y="125.34260869565217" width="59.53773913043478" height="59.53773913043478" rx="0" fill="#ffffff"/><rect x="376.0278260869565" y="125.34260869565217" width="59.53773913043478" height="59.53773913043478" rx="0" fill="#ffffff"/><rect x="438.6991304347826" y="125.34260869565217" width="59.53773913043478" height="59.53773913043478" rx="0" fill="#ffffff"/><rect x="501.3704347826087" y="125.34260869565217" width="59.53773913043478" height="59.53773913043478" rx="0" fill="#ffffff"/><rect x="564.0417391304347" y="125.34260869565217" width="59.53773913043478" height="59.53773913043478" rx="0" fill="#ffffff"/><rect x="626.7130434782608" y="125.34260869565217" width="59.53773913043478" height="59.53773913043478" rx="0" fill="#ffffff"/><rect x="689.3843478260869" y="125.34260869565217" width="59.53773913043478" height="59.53773913043478" rx="0" fill="#ffffff"/><rect x="752.055652173913" y="125.34260869565217" width="59.53773913043478" height="59.53773913043478" rx="0" fill="#ffffff"/><rect x="814.7269565217391" y="125.34260869565217" width="59.53773913043478" height="59.53773913043478" rx="0" fill="#ffffff"/><rect x="877.3982608695652" y="125.34260869565217" width="59.53773913043478" height="59.53773913043478" rx="0" fill="#ffffff"/><rect x="940.0695652173913" y="125.34260869565217" width="59.53773913043478" height="59.53773913043478" rx="0" fill="#ffffff"/><rect x="1002.7408695652174" y="125.34260869565217" width="59.53773913043478" height="59.53773913043478" rx="0" fill="#ffffff"/><rect x="1065.4121739130435" y="125.34260869565217" width="59.53773913043478" height="59.53773913043478" rx="0" fill="#ffffff"/><rect x="1128.0834782608695" y="125.34260869565217" width="59.53773913043478" height="59.53773913043478" rx="0" fill="#ffffff"/><rect x="1190.7547826086957" y="125.34260869565217" width="59.53773913043478" height="59.53773913043478" rx="0" fill="#ffffff"/><rect x="1253.4260869565217" y="125.34260869565217" width="59.53773913043478" height="59.53773913043478" rx="0" fill="#ffffff"/><rect x="1316.0973913043479" y="125.34260869565217" width="59.53773913043478" height="59.53773913043478" rx="0" fill="#ffffff"/><rect x="1378.7686956521738" y="125.34260869565217" width="59.53773913043478" height="59.53773913043478" rx="0" fill="#ffffff"/><rect x="0" y="188.01391304347825" width="59.53773913043478" height="59.53773913043478" rx="0" fill="#ffffff"/><rect x="62.67130434782609" y="188.01391304347825" width="59.53773913043478" height="59.53773913043478" rx="0" fill="#ffffff"/><rect x="125.34260869565217" y="188.01391304347825" width="59.53773913043478" height="59.53773913043478" rx="0" fill="#ffffff"/><rect x="188.01391304347825" y="188.01391304347825" width="59.53773913043478" height="59.53773913043478" rx="0" fill="#ffffff"/><rect x="250.68521739130435" y="188.01391304347825" width="59.53773913043478" height="59.53773913043478" rx="0" fill="#ffffff"/><rect x="313.3565217391304" y="188.01391304347825" width="59.53773913043478" height="59.53773913043478" rx="0" fill="#ffffff"/><rect x="376.0278260869565" y="188.01391304347825" width="59.53773913043478" height="59.53773913043478" rx="0" fill="#ffffff"/><rect x="438.6991304347826" y="188.01391304347825" width="59.53773913043478" height="59.53773913043478" rx="0" fill="#ffffff"/><rect x="501.3704347826087" y="188.01391304347825" width="59.53773913043478" height="59.53773913043478" rx="0" fill="#ffffff"/><rect x="564.0417391304347" y="188.01391304347825" width="59.53773913043478" height="59.53773913043478" rx="0" fill="#ffffff"/><rect x="626.7130434782608" y="188.01391304347825" width="59.53773913043478" height="59.53773913043478" rx="0" fill="#ffffff"/><rect x="689.3843478260869" y="188.01391304347825" width="59.53773913043478" height="59.53773913043478" rx="0" fill="#ffffff"/><rect x="752.055652173913" y="188.01391304347825" width="59.53773913043478" height="59.53773913043478" rx="0" fill="#ffffff"/><rect x="814.7269565217391" y="188.01391304347825" width="59.53773913043478" height="59.53773913043478" rx="0" fill="#ffffff"/><rect x="877.3982608695652" y="188.01391304347825" width="59.53773913043478" height="59.53773913043478" rx="0" fill="#ffffff"/><rect x="940.0695652173913" y="188.01391304347825" width="59.53773913043478" height="59.53773913043478" rx="0" fill="#ffffff"/><rect x="1002.7408695652174" y="188.01391304347825" width="59.53773913043478" height="59.53773913043478" rx="0" fill="#ffffff"/><rect x="1065.4121739130435" y="188.01391304347825" width="59.53773913043478" height="59.53773913043478" rx="0" fill="#ffffff"/><rect x="1128.0834782608695" y="188.01391304347825" width="59.53773913043478" height="59.53773913043478" rx="0" fill="#ffffff"/><rect x="1190.7547826086957" y="188.01391304347825" width="59.53773913043478" height="59.53773913043478" rx="0" fill="#ffffff"/><rect x="1253.4260869565217" y="188.01391304347825" width="59.53773913043478" height="59.53773913043478" rx="0" fill="#ffffff"/><rect x="1316.0973913043479" y="188.01391304347825" width="59.53773913043478" height="59.53773913043478" rx="0" fill="#ffffff"/><rect x="1378.7686956521738" y="188.01391304347825" width="59.53773913043478" height="59.53773913043478" rx="0" fill="#ffffff"/><rect x="0" y="250.68521739130435" width="59.53773913043478" height="59.53773913043478" rx="0" fill="#ffffff"/><rect x="62.67130434782609" y="250.68521739130435" width="59.53773913043478" height="59.53773913043478" rx="0" fill="#ffffff"/><rect x="125.34260869565217" y="250.68521739130435" width="59.53773913043478" height="59.53773913043478" rx="0" fill="#ffffff"/><rect x="188.01391304347825" y="250.68521739130435" width="59.53773913043478" height="59.53773913043478" rx="0" fill="#ffffff"/><rect x="250.68521739130435" y="250.68521739130435" width="59.53773913043478" height="59.53773913043478" rx="0" fill="#ffffff"/><rect x="313.3565217391304" y="250.68521739130435" width="59.53773913043478" height="59.53773913043478" rx="0" fill="#ffffff"/><rect x="376.0278260869565" y="250.68521739130435" width="59.53773913043478" height="59.53773913043478" rx="0" fill="#ffffff"/><rect x="438.6991304347826" y="250.68521739130435" width="59.53773913043478" height="59.53773913043478" rx="0" fill="#ffffff"/><rect x="501.3704347826087" y="250.68521739130435" width="59.53773913043478" height="59.53773913043478" rx="0" fill="#ffffff"/><rect x="564.0417391304347" y="250.68521739130435" width="59.53773913043478" height="59.53773913043478" rx="0" fill="#ffffff"/><rect x="626.7130434782608" y="250.68521739130435" width="59.53773913043478" height="59.53773913043478" rx="0" fill="#ffffff"/><rect x="689.3843478260869" y="250.68521739130435" width="59.53773913043478" height="59.53773913043478" rx="0" fill="#ffffff"/><rect x="752.055652173913" y="250.68521739130435" width="59.53773913043478" height="59.53773913043478" rx="0" fill="#ffffff"/><rect x="814.7269565217391" y="250.68521739130435" width="59.53773913043478" height="59.53773913043478" rx="0" fill="#ffffff"/><rect x="877.3982608695652" y="250.68521739130435" width="59.53773913043478" height="59.53773913043478" rx="0" fill="#ffffff"/><rect x="940.0695652173913" y="250.68521739130435" width="59.53773913043478" height="59.53773913043478" rx="0" fill="#ffffff"/><rect x="1002.7408695652174" y="250.68521739130435" width="59.53773913043478" height="59.53773913043478" rx="0" fill="#ffffff"/><rect x="1065.4121739130435" y="250.68521739130435" width="59.53773913043478" height="59.53773913043478" rx="0" fill="#ffffff"/><rect x="1128.0834782608695" y="250.68521739130435" width="59.53773913043478" height="59.53773913043478" rx="0" fill="#ffffff"/><rect x="1190.7547826086957" y="250.68521739130435" width="59.53773913043478" height="59.53773913043478" rx="0" fill="#ffffff"/><rect x="1253.4260869565217" y="250.68521739130435" width="59.53773913043478" height="59.53773913043478" rx="0" fill="#ffffff"/><rect x="1316.0973913043479" y="250.68521739130435" width="59.53773913043478" height="59.53773913043478" rx="0" fill="#ffffff"/><rect x="1378.7686956521738" y="250.68521739130435" width="59.53773913043478" height="59.53773913043478" rx="0" fill="#ffffff"/><rect x="0" y="313.3565217391304" width="59.53773913043478" height="59.53773913043478" rx="0" fill="#ffffff"/><rect x="62.67130434782609" y="313.3565217391304" width="59.53773913043478" height="59.53773913043478" rx="0" fill="#ffffff"/><rect x="125.34260869565217" y="313.3565217391304" width="59.53773913043478" height="59.53773913043478" rx="0" fill="#ffffff"/><rect x="188.01391304347825" y="313.3565217391304" width="59.53773913043478" height="59.53773913043478" rx="0" fill="#ffffff"/><rect x="250.68521739130435" y="313.3565217391304" width="59.53773913043478" height="59.53773913043478" rx="0" fill="#ffffff"/><rect x="313.3565217391304" y="313.3565217391304" width="59.53773913043478" height="59.53773913043478" rx="0" fill="#ffffff"/><rect x="376.0278260869565" y="313.3565217391304" width="59.53773913043478" height="59.53773913043478" rx="0" fill="#ffffff"/><rect x="438.6991304347826" y="313.3565217391304" width="59.53773913043478" height="59.53773913043478" rx="0" fill="#ffffff"/><rect x="501.3704347826087" y="313.3565217391304" width="59.53773913043478" height="59.53773913043478" rx="0" fill="#ffffff"/><rect x="564.0417391304347" y="313.3565217391304" width="59.53773913043478" height="59.53773913043478" rx="0" fill="#ffffff"/><rect x="626.7130434782608" y="313.3565217391304" width="59.53773913043478" height="59.53773913043478" rx="0" fill="#ffffff"/><rect x="689.3843478260869" y="313.3565217391304" width="59.53773913043478" height="59.53773913043478" rx="0" fill="#ffffff"/><rect x="752.055652173913" y="313.3565217391304" width="59.53773913043478" height="59.53773913043478" rx="0" fill="#ffffff"/><rect x="814.7269565217391" y="313.3565217391304" width="59.53773913043478" height="59.53773913043478" rx="0" fill="#ffffff"/><rect x="877.3982608695652" y="313.3565217391304" width="59.53773913043478" height="59.53773913043478" rx="0" fill="#ffffff"/><rect x="940.0695652173913" y="313.3565217391304" width="59.53773913043478" height="59.53773913043478" rx="0" fill="#ffffff"/><rect x="1002.7408695652174" y="313.3565217391304" width="59.53773913043478" height="59.53773913043478" rx="0" fill="#ffffff"/><rect x="1065.4121739130435" y="313.3565217391304" width="59.53773913043478" height="59.53773913043478" rx="0" fill="#ffffff"/><rect x="1128.0834782608695" y="313.3565217391304" width="59.53773913043478" height="59.53773913043478" rx="0" fill="#ffffff"/><rect x="1190.7547826086957" y="313.3565217391304" width="59.53773913043478" height="59.53773913043478" rx="0" fill="#ffffff"/><rect x="1253.4260869565217" y="313.3565217391304" width="59.53773913043478" height="59.53773913043478" rx="0" fill="#ffffff"/><rect x="1316.0973913043479" y="313.3565217391304" width="59.53773913043478" height="59.53773913043478" rx="0" fill="#ffffff"/><rect x="1378.7686956521738" y="313.3565217391304" width="59.53773913043478" height="59.53773913043478" rx="0" fill="#ffffff"/><rect x="0" y="376.0278260869565" width="59.53773913043478" height="59.53773913043478" rx="0" fill="#ffffff"/><rect x="62.67130434782609" y="376.0278260869565" width="59.53773913043478" height="59.53773913043478" rx="0" fill="#ffffff"/><rect x="125.34260869565217" y="376.0278260869565" width="59.53773913043478" height="59.53773913043478" rx="0" fill="#ffffff"/><rect x="188.01391304347825" y="376.0278260869565" width="59.53773913043478" height="59.53773913043478" rx="0" fill="#ffffff"/><rect x="250.68521739130435" y="376.0278260869565" width="59.53773913043478" height="59.53773913043478" rx="0" fill="#ffffff"/><rect x="313.3565217391304" y="376.0278260869565" width="59.53773913043478" height="59.53773913043478" rx="0" fill="#ffffff"/><rect x="376.0278260869565" y="376.0278260869565" width="59.53773913043478" height="59.53773913043478" rx="0" fill="#ffffff"/><rect x="438.6991304347826" y="376.0278260869565" width="59.53773913043478" height="59.53773913043478" rx="0" fill="#ffffff"/><rect x="501.3704347826087" y="376.0278260869565" width="59.53773913043478" height="59.53773913043478" rx="0" fill="#ffffff"/><rect x="564.0417391304347" y="376.0278260869565" width="59.53773913043478" height="59.53773913043478" rx="0" fill="#ffffff"/><rect x="626.7130434782608" y="376.0278260869565" width="59.53773913043478" height="59.53773913043478" rx="0" fill="#ffffff"/><rect x="689.3843478260869" y="376.0278260869565" width="59.53773913043478" height="59.53773913043478" rx="0" fill="#ffffff"/><rect x="752.055652173913" y="376.0278260869565" width="59.53773913043478" height="59.53773913043478" rx="0" fill="#ffffff"/><rect x="814.7269565217391" y="376.0278260869565" width="59.53773913043478" height="59.53773913043478" rx="0" fill="#ffffff"/><rect x="877.3982608695652" y="376.0278260869565" width="59.53773913043478" height="59.53773913043478" rx="0" fill="#ffffff"/><rect x="940.0695652173913" y="376.0278260869565" width="59.53773913043478" height="59.53773913043478" rx="0" fill="#ffffff"/><rect x="1002.7408695652174" y="376.0278260869565" width="59.53773913043478" height="59.53773913043478" rx="0" fill="#ffffff"/><rect x="1065.4121739130435" y="376.0278260869565" width="59.53773913043478" height="59.53773913043478" rx="0" fill="#ffffff"/><rect x="1128.0834782608695" y="376.0278260869565" width="59.53773913043478" height="59.53773913043478" rx="0" fill="#ffffff"/><rect x="1190.7547826086957" y="376.0278260869565" width="59.53773913043478" height="59.53773913043478" rx="0" fill="#ffffff"/><rect x="1253.4260869565217" y="376.0278260869565" width="59.53773913043478" height="59.53773913043478" rx="0" fill="#ffffff"/><rect x="1316.0973913043479" y="376.0278260869565" width="59.53773913043478" height="59.53773913043478" rx="0" fill="#ffffff"/><rect x="1378.7686956521738" y="376.0278260869565" width="59.53773913043478" height="59.53773913043478" rx="0" fill="#ffffff"/><rect x="0" y="438.6991304347826" width="59.53773913043478" height="59.53773913043478" rx="0" fill="#ffffff"/><rect x="62.67130434782609" y="438.6991304347826" width="59.53773913043478" height="59.53773913043478" rx="0" fill="#ffffff"/><rect x="125.34260869565217" y="438.6991304347826" width="59.53773913043478" height="59.53773913043478" rx="0" fill="#ffffff"/><rect x="188.01391304347825" y="438.6991304347826" width="59.53773913043478" height="59.53773913043478" rx="0" fill="#ffffff"/><rect x="250.68521739130435" y="438.6991304347826" width="59.53773913043478" height="59.53773913043478" rx="0" fill="#ffffff"/><rect x="313.3565217391304" y="438.6991304347826" width="59.53773913043478" height="59.53773913043478" rx="0" fill="#ffffff"/><rect x="376.0278260869565" y="438.6991304347826" width="59.53773913043478" height="59.53773913043478" rx="0" fill="#ffffff"/><rect x="438.6991304347826" y="438.6991304347826" width="59.53773913043478" height="59.53773913043478" rx="0" fill="#ffffff"/><rect x="501.3704347826087" y="438.6991304347826" width="59.53773913043478" height="59.53773913043478" rx="0" fill="#ffffff"/><rect x="564.0417391304347" y="438.6991304347826" width="59.53773913043478" height="59.53773913043478" rx="0" fill="#ffffff"/><rect x="626.7130434782608" y="438.6991304347826" width="59.53773913043478" height="59.53773913043478" rx="0" fill="#ffffff"/><rect x="689.3843478260869" y="438.6991304347826" width="59.53773913043478" height="59.53773913043478" rx="0" fill="#ffffff"/><rect x="752.055652173913" y="438.6991304347826" width="59.53773913043478" height="59.53773913043478" rx="0" fill="#ffffff"/><rect x="814.7269565217391" y="438.6991304347826" width="59.53773913043478" height="59.53773913043478" rx="0" fill="#ffffff"/><rect x="877.3982608695652" y="438.6991304347826" width="59.53773913043478" height="59.53773913043478" rx="0" fill="#ffffff"/><rect x="940.0695652173913" y="438.6991304347826" width="59.53773913043478" height="59.53773913043478" rx="0" fill="#ffffff"/><rect x="1002.7408695652174" y="438.6991304347826" width="59.53773913043478" height="59.53773913043478" rx="0" fill="#ffffff"/><rect x="1065.4121739130435" y="438.6991304347826" width="59.53773913043478" height="59.53773913043478" rx="0" fill="#ffffff"/><rect x="1128.0834782608695" y="438.6991304347826" width="59.53773913043478" height="59.53773913043478" rx="0" fill="#ffffff"/><rect x="1190.7547826086957" y="438.6991304347826" width="59.53773913043478" height="59.53773913043478" rx="0" fill="#ffffff"/><rect x="1253.4260869565217" y="438.6991304347826" width="59.53773913043478" height="59.53773913043478" rx="0" fill="#ffffff"/><rect x="1316.0973913043479" y="438.6991304347826" width="59.53773913043478" height="59.53773913043478" rx="0" fill="#ffffff"/><rect x="1378.7686956521738" y="438.6991304347826" width="59.53773913043478" height="59.53773913043478" rx="0" fill="#ffffff"/><rect x="0" y="501.3704347826087" width="59.53773913043478" height="59.53773913043478" rx="0" fill="#ffffff"/><rect x="62.67130434782609" y="501.3704347826087" width="59.53773913043478" height="59.53773913043478" rx="0" fill="#ffffff"/><rect x="125.34260869565217" y="501.3704347826087" width="59.53773913043478" height="59.53773913043478" rx="0" fill="#ffffff"/><rect x="188.01391304347825" y="501.3704347826087" width="59.53773913043478" height="59.53773913043478" rx="0" fill="#ffffff"/><rect x="250.68521739130435" y="501.3704347826087" width="59.53773913043478" height="59.53773913043478" rx="0" fill="#ffffff"/><rect x="313.3565217391304" y="501.3704347826087" width="59.53773913043478" height="59.53773913043478" rx="0" fill="#ffffff"/><rect x="376.0278260869565" y="501.3704347826087" width="59.53773913043478" height="59.53773913043478" rx="0" fill="#ffffff"/><rect x="438.6991304347826" y="501.3704347826087" width="59.53773913043478" height="59.53773913043478" rx="0" fill="#ffffff"/><rect x="501.3704347826087" y="501.3704347826087" width="59.53773913043478" height="59.53773913043478" rx="0" fill="#ffffff"/><rect x="564.0417391304347" y="501.3704347826087" width="59.53773913043478" height="59.53773913043478" rx="0" fill="#ffffff"/><rect x="626.7130434782608" y="501.3704347826087" width="59.53773913043478" height="59.53773913043478" rx="0" fill="#ffffff"/><rect x="689.3843478260869" y="501.3704347826087" width="59.53773913043478" height="59.53773913043478" rx="0" fill="#ffffff"/><rect x="752.055652173913" y="501.3704347826087" width="59.53773913043478" height="59.53773913043478" rx="0" fill="#ffffff"/><rect x="814.7269565217391" y="501.3704347826087" width="59.53773913043478" height="59.53773913043478" rx="0" fill="#ffffff"/><rect x="877.3982608695652" y="501.3704347826087" width="59.53773913043478" height="59.53773913043478" rx="0" fill="#ffffff"/><rect x="940.0695652173913" y="501.3704347826087" width="59.53773913043478" height="59.53773913043478" rx="0" fill="#ffffff"/><rect x="1002.7408695652174" y="501.3704347826087" width="59.53773913043478" height="59.53773913043478" rx="0" fill="#ffffff"/><rect x="1065.4121739130435" y="501.3704347826087" width="59.53773913043478" height="59.53773913043478" rx="0" fill="#ffffff"/><rect x="1128.0834782608695" y="501.3704347826087" width="59.53773913043478" height="59.53773913043478" rx="0" fill="#ffffff"/><rect x="1190.7547826086957" y="501.3704347826087" width="59.53773913043478" height="59.53773913043478" rx="0" fill="#ffffff"/><rect x="1253.4260869565217" y="501.3704347826087" width="59.53773913043478" height="59.53773913043478" rx="0" fill="#ffffff"/><rect x="1316.0973913043479" y="501.3704347826087" width="59.53773913043478" height="59.53773913043478" rx="0" fill="#ffffff"/><rect x="1378.7686956521738" y="501.3704347826087" width="59.53773913043478" height="59.53773913043478" rx="0" fill="#ffffff"/><rect x="0" y="564.0417391304347" width="59.53773913043478" height="59.53773913043478" rx="0" fill="#ffffff"/><rect x="62.67130434782609" y="564.0417391304347" width="59.53773913043478" height="59.53773913043478" rx="0" fill="#ffffff"/><rect x="125.34260869565217" y="564.0417391304347" width="59.53773913043478" height="59.53773913043478" rx="0" fill="#ffffff"/><rect x="188.01391304347825" y="564.0417391304347" width="59.53773913043478" height="59.53773913043478" rx="0" fill="#ffffff"/><rect x="250.68521739130435" y="564.0417391304347" width="59.53773913043478" height="59.53773913043478" rx="0" fill="#ffffff"/><rect x="313.3565217391304" y="564.0417391304347" width="59.53773913043478" height="59.53773913043478" rx="0" fill="#ffffff"/><rect x="376.0278260869565" y="564.0417391304347" width="59.53773913043478" height="59.53773913043478" rx="0" fill="#ffffff"/><rect x="438.6991304347826" y="564.0417391304347" width="59.53773913043478" height="59.53773913043478" rx="0" fill="#ffffff"/><rect x="501.3704347826087" y="564.0417391304347" width="59.53773913043478" height="59.53773913043478" rx="0" fill="#ffffff"/><rect x="564.0417391304347" y="564.0417391304347" width="59.53773913043478" height="59.53773913043478" rx="0" fill="#ffffff"/><rect x="626.7130434782608" y="564.0417391304347" width="59.53773913043478" height="59.53773913043478" rx="0" fill="#ffffff"/><rect x="689.3843478260869" y="564.0417391304347" width="59.53773913043478" height="59.53773913043478" rx="0" fill="#ffffff"/><rect x="752.055652173913" y="564.0417391304347" width="59.53773913043478" height="59.53773913043478" rx="0" fill="#ffffff"/><rect x="814.7269565217391" y="564.0417391304347" width="59.53773913043478" height="59.53773913043478" rx="0" fill="#ffffff"/><rect x="877.3982608695652" y="564.0417391304347" width="59.53773913043478" height="59.53773913043478" rx="0" fill="#ffffff"/><rect x="940.0695652173913" y="564.0417391304347" width="59.53773913043478" height="59.53773913043478" rx="0" fill="#ffffff"/><rect x="1002.7408695652174" y="564.0417391304347" width="59.53773913043478" height="59.53773913043478" rx="0" fill="#ffffff"/><rect x="1065.4121739130435" y="564.0417391304347" width="59.53773913043478" height="59.53773913043478" rx="0" fill="#ffffff"/><rect x="1128.0834782608695" y="564.0417391304347" width="59.53773913043478" height="59.53773913043478" rx="0" fill="#ffffff"/><rect x="1190.7547826086957" y="564.0417391304347" width="59.53773913043478" height="59.53773913043478" rx="0" fill="#ffffff"/><rect x="1253.4260869565217" y="564.0417391304347" width="59.53773913043478" height="59.53773913043478" rx="0" fill="#ffffff"/><rect x="1316.0973913043479" y="564.0417391304347" width="59.53773913043478" height="59.53773913043478" rx="0" fill="#ffffff"/><rect x="1378.7686956521738" y="564.0417391304347" width="59.53773913043478" height="59.53773913043478" rx="0" fill="#ffffff"/><rect x="0" y="626.7130434782608" width="59.53773913043478" height="59.53773913043478" rx="0" fill="#ffffff"/><rect x="62.67130434782609" y="626.7130434782608" width="59.53773913043478" height="59.53773913043478" rx="0" fill="#ffffff"/><rect x="125.34260869565217" y="626.7130434782608" width="59.53773913043478" height="59.53773913043478" rx="0" fill="#ffffff"/><rect x="188.01391304347825" y="626.7130434782608" width="59.53773913043478" height="59.53773913043478" rx="0" fill="#ffffff"/><rect x="250.68521739130435" y="626.7130434782608" width="59.53773913043478" height="59.53773913043478" rx="0" fill="#ffffff"/><rect x="313.3565217391304" y="626.7130434782608" width="59.53773913043478" height="59.53773913043478" rx="0" fill="#ffffff"/><rect x="376.0278260869565" y="626.7130434782608" width="59.53773913043478" height="59.53773913043478" rx="0" fill="#ffffff"/><rect x="438.6991304347826" y="626.7130434782608" width="59.53773913043478" height="59.53773913043478" rx="0" fill="#ffffff"/><rect x="501.3704347826087" y="626.7130434782608" width="59.53773913043478" height="59.53773913043478" rx="0" fill="#ffffff"/><rect x="564.0417391304347" y="626.7130434782608" width="59.53773913043478" height="59.53773913043478" rx="0" fill="#ffffff"/><rect x="626.7130434782608" y="626.7130434782608" width="59.53773913043478" height="59.53773913043478" rx="0" fill="#ffffff"/><rect x="689.3843478260869" y="626.7130434782608" width="59.53773913043478" height="59.53773913043478" rx="0" fill="#ffffff"/><rect x="752.055652173913" y="626.7130434782608" width="59.53773913043478" height="59.53773913043478" rx="0" fill="#ffffff"/><rect x="814.7269565217391" y="626.7130434782608" width="59.53773913043478" height="59.53773913043478" rx="0" fill="#ffffff"/><rect x="877.3982608695652" y="626.7130434782608" width="59.53773913043478" height="59.53773913043478" rx="0" fill="#ffffff"/><rect x="940.0695652173913" y="626.7130434782608" width="59.53773913043478" height="59.53773913043478" rx="0" fill="#ffffff"/><rect x="1002.7408695652174" y="626.7130434782608" width="59.53773913043478" height="59.53773913043478" rx="0" fill="#ffffff"/><rect x="1065.4121739130435" y="626.7130434782608" width="59.53773913043478" height="59.53773913043478" rx="0" fill="#ffffff"/><rect x="1128.0834782608695" y="626.7130434782608" width="59.53773913043478" height="59.53773913043478" rx="0" fill="#ffffff"/><rect x="1190.7547826086957" y="626.7130434782608" width="59.53773913043478" height="59.53773913043478" rx="0" fill="#ffffff"/><rect x="1253.4260869565217" y="626.7130434782608" width="59.53773913043478" height="59.53773913043478" rx="0" fill="#ffffff"/><rect x="1316.0973913043479" y="626.7130434782608" width="59.53773913043478" height="59.53773913043478" rx="0" fill="#ffffff"/><rect x="1378.7686956521738" y="626.7130434782608" width="59.53773913043478" height="59.53773913043478" rx="0" fill="#ffffff"/><rect x="0" y="689.3843478260869" width="59.53773913043478" height="59.53773913043478" rx="0" fill="#ffffff"/><rect x="62.67130434782609" y="689.3843478260869" width="59.53773913043478" height="59.53773913043478" rx="0" fill="#ffffff"/><rect x="125.34260869565217" y="689.3843478260869" width="59.53773913043478" height="59.53773913043478" rx="0" fill="#ffffff"/><rect x="188.01391304347825" y="689.3843478260869" width="59.53773913043478" height="59.53773913043478" rx="0" fill="#ffffff"/><rect x="250.68521739130435" y="689.3843478260869" width="59.53773913043478" height="59.53773913043478" rx="0" fill="#ffffff"/><rect x="313.3565217391304" y="689.3843478260869" width="59.53773913043478" height="59.53773913043478" rx="0" fill="#ffffff"/><rect x="376.0278260869565" y="689.3843478260869" width="59.53773913043478" height="59.53773913043478" rx="0" fill="#ffffff"/><rect x="438.6991304347826" y="689.3843478260869" width="59.53773913043478" height="59.53773913043478" rx="0" fill="#ffffff"/><rect x="501.3704347826087" y="689.3843478260869" width="59.53773913043478" height="59.53773913043478" rx="0" fill="#ffffff"/><rect x="564.0417391304347" y="689.3843478260869" width="59.53773913043478" height="59.53773913043478" rx="0" fill="#ffffff"/><rect x="626.7130434782608" y="689.3843478260869" width="59.53773913043478" height="59.53773913043478" rx="0" fill="#ffffff"/><rect x="689.3843478260869" y="689.3843478260869" width="59.53773913043478" height="59.53773913043478" rx="0" fill="#ffffff"/><rect x="752.055652173913" y="689.3843478260869" width="59.53773913043478" height="59.53773913043478" rx="0" fill="#ffffff"/><rect x="814.7269565217391" y="689.3843478260869" width="59.53773913043478" height="59.53773913043478" rx="0" fill="#ffffff"/><rect x="877.3982608695652" y="689.3843478260869" width="59.53773913043478" height="59.53773913043478" rx="0" fill="#ffffff"/><rect x="940.0695652173913" y="689.3843478260869" width="59.53773913043478" height="59.53773913043478" rx="0" fill="#ffffff"/><rect x="1002.7408695652174" y="689.3843478260869" width="59.53773913043478" height="59.53773913043478" rx="0" fill="#ffffff"/><rect x="1065.4121739130435" y="689.3843478260869" width="59.53773913043478" height="59.53773913043478" rx="0" fill="#ffffff"/><rect x="1128.0834782608695" y="689.3843478260869" width="59.53773913043478" height="59.53773913043478" rx="0" fill="#ffffff"/><rect x="1190.7547826086957" y="689.3843478260869" width="59.53773913043478" height="59.53773913043478" rx="0" fill="#ffffff"/><rect x="1253.4260869565217" y="689.3843478260869" width="59.53773913043478" height="59.53773913043478" rx="0" fill="#ffffff"/><rect x="1316.0973913043479" y="689.3843478260869" width="59.53773913043478" height="59.53773913043478" rx="0" fill="#ffffff"/><rect x="1378.7686956521738" y="689.3843478260869" width="59.53773913043478" height="59.53773913043478" rx="0" fill="#ffffff"/><rect x="0" y="752.055652173913" width="59.53773913043478" height="59.53773913043478" rx="0" fill="#ffffff"/><rect x="62.67130434782609" y="752.055652173913" width="59.53773913043478" height="59.53773913043478" rx="0" fill="#ffffff"/><rect x="125.34260869565217" y="752.055652173913" width="59.53773913043478" height="59.53773913043478" rx="0" fill="#ffffff"/><rect x="188.01391304347825" y="752.055652173913" width="59.53773913043478" height="59.53773913043478" rx="0" fill="#ffffff"/><rect x="250.68521739130435" y="752.055652173913" width="59.53773913043478" height="59.53773913043478" rx="0" fill="#ffffff"/><rect x="313.3565217391304" y="752.055652173913" width="59.53773913043478" height="59.53773913043478" rx="0" fill="#ffffff"/><rect x="376.0278260869565" y="752.055652173913" width="59.53773913043478" height="59.53773913043478" rx="0" fill="#ffffff"/><rect x="438.6991304347826" y="752.055652173913" width="59.53773913043478" height="59.53773913043478" rx="0" fill="#ffffff"/><rect x="501.3704347826087" y="752.055652173913" width="59.53773913043478" height="59.53773913043478" rx="0" fill="#ffffff"/><rect x="564.0417391304347" y="752.055652173913" width="59.53773913043478" height="59.53773913043478" rx="0" fill="#ffffff"/><rect x="626.7130434782608" y="752.055652173913" width="59.53773913043478" height="59.53773913043478" rx="0" fill="#ffffff"/><rect x="689.3843478260869" y="752.055652173913" width="59.53773913043478" height="59.53773913043478" rx="0" fill="#ffffff"/><rect x="752.055652173913" y="752.055652173913" width="59.53773913043478" height="59.53773913043478" rx="0" fill="#ffffff"/><rect x="814.7269565217391" y="752.055652173913" width="59.53773913043478" height="59.53773913043478" rx="0" fill="#ffffff"/><rect x="877.3982608695652" y="752.055652173913" width="59.53773913043478" height="59.53773913043478" rx="0" fill="#ffffff"/><rect x="940.0695652173913" y="752.055652173913" width="59.53773913043478" height="59.53773913043478" rx="0" fill="#ffffff"/><rect x="1002.7408695652174" y="752.055652173913" width="59.53773913043478" height="59.53773913043478" rx="0" fill="#ffffff"/><rect x="1065.4121739130435" y="752.055652173913" width="59.53773913043478" height="59.53773913043478" rx="0" fill="#ffffff"/><rect x="1128.0834782608695" y="752.055652173913" width="59.53773913043478" height="59.53773913043478" rx="0" fill="#ffffff"/><rect x="1190.7547826086957" y="752.055652173913" width="59.53773913043478" height="59.53773913043478" rx="0" fill="#ffffff"/><rect x="1253.4260869565217" y="752.055652173913" width="59.53773913043478" height="59.53773913043478" rx="0" fill="#ffffff"/><rect x="1316.0973913043479" y="752.055652173913" width="59.53773913043478" height="59.53773913043478" rx="0" fill="#ffffff"/><rect x="1378.7686956521738" y="752.055652173913" width="59.53773913043478" height="59.53773913043478" rx="0" fill="#ffffff"/><rect x="0" y="814.7269565217391" width="59.53773913043478" height="59.53773913043478" rx="0" fill="#ffffff"/><rect x="62.67130434782609" y="814.7269565217391" width="59.53773913043478" height="59.53773913043478" rx="0" fill="#ffffff"/><rect x="125.34260869565217" y="814.7269565217391" width="59.53773913043478" height="59.53773913043478" rx="0" fill="#ffffff"/><rect x="188.01391304347825" y="814.7269565217391" width="59.53773913043478" height="59.53773913043478" rx="0" fill="#ffffff"/><rect x="250.68521739130435" y="814.7269565217391" width="59.53773913043478" height="59.53773913043478" rx="0" fill="#ffffff"/><rect x="313.3565217391304" y="814.7269565217391" width="59.53773913043478" height="59.53773913043478" rx="0" fill="#ffffff"/><rect x="376.0278260869565" y="814.7269565217391" width="59.53773913043478" height="59.53773913043478" rx="0" fill="#ffffff"/><rect x="438.6991304347826" y="814.7269565217391" width="59.53773913043478" height="59.53773913043478" rx="0" fill="#ffffff"/><rect x="501.3704347826087" y="814.7269565217391" width="59.53773913043478" height="59.53773913043478" rx="0" fill="#ffffff"/><rect x="564.0417391304347" y="814.7269565217391" width="59.53773913043478" height="59.53773913043478" rx="0" fill="#ffffff"/><rect x="626.7130434782608" y="814.7269565217391" width="59.53773913043478" height="59.53773913043478" rx="0" fill="#ffffff"/><rect x="689.3843478260869" y="814.7269565217391" width="59.53773913043478" height="59.53773913043478" rx="0" fill="#ffffff"/><rect x="752.055652173913" y="814.7269565217391" width="59.53773913043478" height="59.53773913043478" rx="0" fill="#ffffff"/><rect x="814.7269565217391" y="814.7269565217391" width="59.53773913043478" height="59.53773913043478" rx="0" fill="#ffffff"/><rect x="877.3982608695652" y="814.7269565217391" width="59.53773913043478" height="59.53773913043478" rx="0" fill="#ffffff"/><rect x="940.0695652173913" y="814.7269565217391" width="59.53773913043478" height="59.53773913043478" rx="0" fill="#ffffff"/><rect x="1002.7408695652174" y="814.7269565217391" width="59.53773913043478" height="59.53773913043478" rx="0" fill="#ffffff"/><rect x="1065.4121739130435" y="814.7269565217391" width="59.53773913043478" height="59.53773913043478" rx="0" fill="#ffffff"/><rect x="1128.0834782608695" y="814.7269565217391" width="59.53773913043478" height="59.53773913043478" rx="0" fill="#ffffff"/><rect x="1190.7547826086957" y="814.7269565217391" width="59.53773913043478" height="59.53773913043478" rx="0" fill="#ffffff"/><rect x="1253.4260869565217" y="814.7269565217391" width="59.53773913043478" height="59.53773913043478" rx="0" fill="#ffffff"/><rect x="1316.0973913043479" y="814.7269565217391" width="59.53773913043478" height="59.53773913043478" rx="0" fill="#ffffff"/><rect x="1378.7686956521738" y="814.7269565217391" width="59.53773913043478" height="59.53773913043478" rx="0" fill="#ffffff"/><rect x="0" y="877.3982608695652" width="59.53773913043478" height="59.53773913043478" rx="0" fill="#ffffff"/><rect x="62.67130434782609" y="877.3982608695652" width="59.53773913043478" height="59.53773913043478" rx="0" fill="#ffffff"/><rect x="125.34260869565217" y="877.3982608695652" width="59.53773913043478" height="59.53773913043478" rx="0" fill="#ffffff"/><rect x="188.01391304347825" y="877.3982608695652" width="59.53773913043478" height="59.53773913043478" rx="0" fill="#ffffff"/><rect x="250.68521739130435" y="877.3982608695652" width="59.53773913043478" height="59.53773913043478" rx="0" fill="#ffffff"/><rect x="313.3565217391304" y="877.3982608695652" width="59.53773913043478" height="59.53773913043478" rx="0" fill="#ffffff"/><rect x="376.0278260869565" y="877.3982608695652" width="59.53773913043478" height="59.53773913043478" rx="0" fill="#ffffff"/><rect x="438.6991304347826" y="877.3982608695652" width="59.53773913043478" height="59.53773913043478" rx="0" fill="#ffffff"/><rect x="501.3704347826087" y="877.3982608695652" width="59.53773913043478" height="59.53773913043478" rx="0" fill="#ffffff"/><rect x="564.0417391304347" y="877.3982608695652" width="59.53773913043478" height="59.53773913043478" rx="0" fill="#ffffff"/><rect x="626.7130434782608" y="877.3982608695652" width="59.53773913043478" height="59.53773913043478" rx="0" fill="#ffffff"/><rect x="689.3843478260869" y="877.3982608695652" width="59.53773913043478" height="59.53773913043478" rx="0" fill="#ffffff"/><rect x="752.055652173913" y="877.3982608695652" width="59.53773913043478" height="59.53773913043478" rx="0" fill="#ffffff"/><rect x="814.7269565217391" y="877.3982608695652" width="59.53773913043478" height="59.53773913043478" rx="0" fill="#ffffff"/><rect x="877.3982608695652" y="877.3982608695652" width="59.53773913043478" height="59.53773913043478" rx="0" fill="#ffffff"/><rect x="940.0695652173913" y="877.3982608695652" width="59.53773913043478" height="59.53773913043478" rx="0" fill="#ffffff"/><rect x="1002.7408695652174" y="877.3982608695652" width="59.53773913043478" height="59.53773913043478" rx="0" fill="#ffffff"/><rect x="1065.4121739130435" y="877.3982608695652" width="59.53773913043478" height="59.53773913043478" rx="0" fill="#ffffff"/><rect x="1128.0834782608695" y="877.3982608695652" width="59.53773913043478" height="59.53773913043478" rx="0" fill="#ffffff"/><rect x="1190.7547826086957" y="877.3982608695652" width="59.53773913043478" height="59.53773913043478" rx="0" fill="#ffffff"/><rect x="1253.4260869565217" y="877.3982608695652" width="59.53773913043478" height="59.53773913043478" rx="0" fill="#ffffff"/><rect x="1316.0973913043479" y="877.3982608695652" width="59.53773913043478" height="59.53773913043478" rx="0" fill="#ffffff"/><rect x="1378.7686956521738" y="877.3982608695652" width="59.53773913043478" height="59.53773913043478" rx="0" fill="#ffffff"/><rect x="0" y="940.0695652173913" width="59.53773913043478" height="59.53773913043478" rx="0" fill="#ffffff"/><rect x="62.67130434782609" y="940.0695652173913" width="59.53773913043478" height="59.53773913043478" rx="0" fill="#ffffff"/><rect x="125.34260869565217" y="940.0695652173913" width="59.53773913043478" height="59.53773913043478" rx="0" fill="#ffffff"/><rect x="188.01391304347825" y="940.0695652173913" width="59.53773913043478" height="59.53773913043478" rx="0" fill="#ffffff"/><rect x="250.68521739130435" y="940.0695652173913" width="59.53773913043478" height="59.53773913043478" rx="0" fill="#ffffff"/><rect x="313.3565217391304" y="940.0695652173913" width="59.53773913043478" height="59.53773913043478" rx="0" fill="#ffffff"/><rect x="376.0278260869565" y="940.0695652173913" width="59.53773913043478" height="59.53773913043478" rx="0" fill="#ffffff"/><rect x="438.6991304347826" y="940.0695652173913" width="59.53773913043478" height="59.53773913043478" rx="0" fill="#ffffff"/><rect x="501.3704347826087" y="940.0695652173913" width="59.53773913043478" height="59.53773913043478" rx="0" fill="#ffffff"/><rect x="564.0417391304347" y="940.0695652173913" width="59.53773913043478" height="59.53773913043478" rx="0" fill="#ffffff"/><rect x="626.7130434782608" y="940.0695652173913" width="59.53773913043478" height="59.53773913043478" rx="0" fill="#ffffff"/><rect x="689.3843478260869" y="940.0695652173913" width="59.53773913043478" height="59.53773913043478" rx="0" fill="#ffffff"/><rect x="752.055652173913" y="940.0695652173913" width="59.53773913043478" height="59.53773913043478" rx="0" fill="#ffffff"/><rect x="814.7269565217391" y="940.0695652173913" width="59.53773913043478" height="59.53773913043478" rx="0" fill="#ffffff"/><rect x="877.3982608695652" y="940.0695652173913" width="59.53773913043478" height="59.53773913043478" rx="0" fill="#ffffff"/><rect x="940.0695652173913" y="940.0695652173913" width="59.53773913043478" height="59.53773913043478" rx="0" fill="#ffffff"/><rect x="1002.7408695652174" y="940.0695652173913" width="59.53773913043478" height="59.53773913043478" rx="0" fill="#ffffff"/><rect x="1065.4121739130435" y="940.0695652173913" width="59.53773913043478" height="59.53773913043478" rx="0" fill="#ffffff"/><rect x="1128.0834782608695" y="940.0695652173913" width="59.53773913043478" height="59.53773913043478" rx="0" fill="#ffffff"/><rect x="1190.7547826086957" y="940.0695652173913" width="59.53773913043478" height="59.53773913043478" rx="0" fill="#ffffff"/><rect x="1253.4260869565217" y="940.0695652173913" width="59.53773913043478" height="59.53773913043478" rx="0" fill="#ffffff"/><rect x="1316.0973913043479" y="940.0695652173913" width="59.53773913043478" height="59.53773913043478" rx="0" fill="#ffffff"/><rect x="1378.7686956521738" y="940.0695652173913" width="59.53773913043478" height="59.53773913043478" rx="0" fill="#ffffff"/><rect x="0" y="1002.7408695652174" width="59.53773913043478" height="59.53773913043478" rx="0" fill="#ffffff"/><rect x="62.67130434782609" y="1002.7408695652174" width="59.53773913043478" height="59.53773913043478" rx="0" fill="#ffffff"/><rect x="125.34260869565217" y="1002.7408695652174" width="59.53773913043478" height="59.53773913043478" rx="0" fill="#ffffff"/><rect x="188.01391304347825" y="1002.7408695652174" width="59.53773913043478" height="59.53773913043478" rx="0" fill="#ffffff"/><rect x="250.68521739130435" y="1002.7408695652174" width="59.53773913043478" height="59.53773913043478" rx="0" fill="#ffffff"/><rect x="313.3565217391304" y="1002.7408695652174" width="59.53773913043478" height="59.53773913043478" rx="0" fill="#ffffff"/><rect x="376.0278260869565" y="1002.7408695652174" width="59.53773913043478" height="59.53773913043478" rx="0" fill="#ffffff"/><rect x="438.6991304347826" y="1002.7408695652174" width="59.53773913043478" height="59.53773913043478" rx="0" fill="#ffffff"/><rect x="501.3704347826087" y="1002.7408695652174" width="59.53773913043478" height="59.53773913043478" rx="0" fill="#ffffff"/><rect x="564.0417391304347" y="1002.7408695652174" width="59.53773913043478" height="59.53773913043478" rx="0" fill="#ffffff"/><rect x="626.7130434782608" y="1002.7408695652174" width="59.53773913043478" height="59.53773913043478" rx="0" fill="#ffffff"/><rect x="689.3843478260869" y="1002.7408695652174" width="59.53773913043478" height="59.53773913043478" rx="0" fill="#ffffff"/><rect x="752.055652173913" y="1002.7408695652174" width="59.53773913043478" height="59.53773913043478" rx="0" fill="#ffffff"/><rect x="814.7269565217391" y="1002.7408695652174" width="59.53773913043478" height="59.53773913043478" rx="0" fill="#ffffff"/><rect x="877.3982608695652" y="1002.7408695652174" width="59.53773913043478" height="59.53773913043478" rx="0" fill="#ffffff"/><rect x="940.0695652173913" y="1002.7408695652174" width="59.53773913043478" height="59.53773913043478" rx="0" fill="#ffffff"/><rect x="1002.7408695652174" y="1002.7408695652174" width="59.53773913043478" height="59.53773913043478" rx="0" fill="#ffffff"/><rect x="1065.4121739130435" y="1002.7408695652174" width="59.53773913043478" height="59.53773913043478" rx="0" fill="#ffffff"/><rect x="1128.0834782608695" y="1002.7408695652174" width="59.53773913043478" height="59.53773913043478" rx="0" fill="#ffffff"/><rect x="1190.7547826086957" y="1002.7408695652174" width="59.53773913043478" height="59.53773913043478" rx="0" fill="#ffffff"/><rect x="1253.4260869565217" y="1002.7408695652174" width="59.53773913043478" height="59.53773913043478" rx="0" fill="#ffffff"/><rect x="1316.0973913043479" y="1002.7408695652174" width="59.53773913043478" height="59.53773913043478" rx="0" fill="#ffffff"/><rect x="1378.7686956521738" y="1002.7408695652174" width="59.53773913043478" height="59.53773913043478" rx="0" fill="#ffffff"/><rect x="0" y="1065.4121739130435" width="59.53773913043478" height="59.53773913043478" rx="0" fill="#ffffff"/><rect x="62.67130434782609" y="1065.4121739130435" width="59.53773913043478" height="59.53773913043478" rx="0" fill="#ffffff"/><rect x="125.34260869565217" y="1065.4121739130435" width="59.53773913043478" height="59.53773913043478" rx="0" fill="#ffffff"/><rect x="188.01391304347825" y="1065.4121739130435" width="59.53773913043478" height="59.53773913043478" rx="0" fill="#ffffff"/><rect x="250.68521739130435" y="1065.4121739130435" width="59.53773913043478" height="59.53773913043478" rx="0" fill="#ffffff"/><rect x="313.3565217391304" y="1065.4121739130435" width="59.53773913043478" height="59.53773913043478" rx="0" fill="#ffffff"/><rect x="376.0278260869565" y="1065.4121739130435" width="59.53773913043478" height="59.53773913043478" rx="0" fill="#ffffff"/><rect x="438.6991304347826" y="1065.4121739130435" width="59.53773913043478" height="59.53773913043478" rx="0" fill="#ffffff"/><rect x="501.3704347826087" y="1065.4121739130435" width="59.53773913043478" height="59.53773913043478" rx="0" fill="#ffffff"/><rect x="564.0417391304347" y="1065.4121739130435" width="59.53773913043478" height="59.53773913043478" rx="0" fill="#ffffff"/><rect x="626.7130434782608" y="1065.4121739130435" width="59.53773913043478" height="59.53773913043478" rx="0" fill="#ffffff"/><rect x="689.3843478260869" y="1065.4121739130435" width="59.53773913043478" height="59.53773913043478" rx="0" fill="#ffffff"/><rect x="752.055652173913" y="1065.4121739130435" width="59.53773913043478" height="59.53773913043478" rx="0" fill="#ffffff"/><rect x="814.7269565217391" y="1065.4121739130435" width="59.53773913043478" height="59.53773913043478" rx="0" fill="#ffffff"/><rect x="877.3982608695652" y="1065.4121739130435" width="59.53773913043478" height="59.53773913043478" rx="0" fill="#ffffff"/><rect x="940.0695652173913" y="1065.4121739130435" width="59.53773913043478" height="59.53773913043478" rx="0" fill="#ffffff"/><rect x="1002.7408695652174" y="1065.4121739130435" width="59.53773913043478" height="59.53773913043478" rx="0" fill="#ffffff"/><rect x="1065.4121739130435" y="1065.4121739130435" width="59.53773913043478" height="59.53773913043478" rx="0" fill="#ffffff"/><rect x="1128.0834782608695" y="1065.4121739130435" width="59.53773913043478" height="59.53773913043478" rx="0" fill="#ffffff"/><rect x="1190.7547826086957" y="1065.4121739130435" width="59.53773913043478" height="59.53773913043478" rx="0" fill="#ffffff"/><rect x="1253.4260869565217" y="1065.4121739130435" width="59.53773913043478" height="59.53773913043478" rx="0" fill="#ffffff"/><rect x="1316.0973913043479" y="1065.4121739130435" width="59.53773913043478" height="59.53773913043478" rx="0" fill="#ffffff"/><rect x="1378.7686956521738" y="1065.4121739130435" width="59.53773913043478" height="59.53773913043478" rx="0" fill="#ffffff"/><rect x="0" y="1128.0834782608695" width="59.53773913043478" height="59.53773913043478" rx="0" fill="#ffffff"/><rect x="62.67130434782609" y="1128.0834782608695" width="59.53773913043478" height="59.53773913043478" rx="0" fill="#ffffff"/><rect x="125.34260869565217" y="1128.0834782608695" width="59.53773913043478" height="59.53773913043478" rx="0" fill="#ffffff"/><rect x="188.01391304347825" y="1128.0834782608695" width="59.53773913043478" height="59.53773913043478" rx="0" fill="#ffffff"/><rect x="250.68521739130435" y="1128.0834782608695" width="59.53773913043478" height="59.53773913043478" rx="0" fill="#ffffff"/><rect x="313.3565217391304" y="1128.0834782608695" width="59.53773913043478" height="59.53773913043478" rx="0" fill="#ffffff"/><rect x="376.0278260869565" y="1128.0834782608695" width="59.53773913043478" height="59.53773913043478" rx="0" fill="#ffffff"/><rect x="438.6991304347826" y="1128.0834782608695" width="59.53773913043478" height="59.53773913043478" rx="0" fill="#ffffff"/><rect x="501.3704347826087" y="1128.0834782608695" width="59.53773913043478" height="59.53773913043478" rx="0" fill="#ffffff"/><rect x="564.0417391304347" y="1128.0834782608695" width="59.53773913043478" height="59.53773913043478" rx="0" fill="#ffffff"/><rect x="626.7130434782608" y="1128.0834782608695" width="59.53773913043478" height="59.53773913043478" rx="0" fill="#ffffff"/><rect x="689.3843478260869" y="1128.0834782608695" width="59.53773913043478" height="59.53773913043478" rx="0" fill="#ffffff"/><rect x="752.055652173913" y="1128.0834782608695" width="59.53773913043478" height="59.53773913043478" rx="0" fill="#ffffff"/><rect x="814.7269565217391" y="1128.0834782608695" width="59.53773913043478" height="59.53773913043478" rx="0" fill="#ffffff"/><rect x="877.3982608695652" y="1128.0834782608695" width="59.53773913043478" height="59.53773913043478" rx="0" fill="#ffffff"/><rect x="940.0695652173913" y="1128.0834782608695" width="59.53773913043478" height="59.53773913043478" rx="0" fill="#ffffff"/><rect x="1002.7408695652174" y="1128.0834782608695" width="59.53773913043478" height="59.53773913043478" rx="0" fill="#ffffff"/><rect x="1065.4121739130435" y="1128.0834782608695" width="59.53773913043478" height="59.53773913043478" rx="0" fill="#ffffff"/><rect x="1128.0834782608695" y="1128.0834782608695" width="59.53773913043478" height="59.53773913043478" rx="0" fill="#ffffff"/><rect x="1190.7547826086957" y="1128.0834782608695" width="59.53773913043478" height="59.53773913043478" rx="0" fill="#ffffff"/><rect x="1253.4260869565217" y="1128.0834782608695" width="59.53773913043478" height="59.53773913043478" rx="0" fill="#ffffff"/><rect x="1316.0973913043479" y="1128.0834782608695" width="59.53773913043478" height="59.53773913043478" rx="0" fill="#ffffff"/><rect x="1378.7686956521738" y="1128.0834782608695" width="59.53773913043478" height="59.53773913043478" rx="0" fill="#ffffff"/><rect x="0" y="1190.7547826086957" width="59.53773913043478" height="59.53773913043478" rx="0" fill="#ffffff"/><rect x="62.67130434782609" y="1190.7547826086957" width="59.53773913043478" height="59.53773913043478" rx="0" fill="#ffffff"/><rect x="125.34260869565217" y="1190.7547826086957" width="59.53773913043478" height="59.53773913043478" rx="0" fill="#ffffff"/><rect x="188.01391304347825" y="1190.7547826086957" width="59.53773913043478" height="59.53773913043478" rx="0" fill="#ffffff"/><rect x="250.68521739130435" y="1190.7547826086957" width="59.53773913043478" height="59.53773913043478" rx="0" fill="#ffffff"/><rect x="313.3565217391304" y="1190.7547826086957" width="59.53773913043478" height="59.53773913043478" rx="0" fill="#ffffff"/><rect x="376.0278260869565" y="1190.7547826086957" width="59.53773913043478" height="59.53773913043478" rx="0" fill="#ffffff"/><rect x="438.6991304347826" y="1190.7547826086957" width="59.53773913043478" height="59.53773913043478" rx="0" fill="#ffffff"/><rect x="501.3704347826087" y="1190.7547826086957" width="59.53773913043478" height="59.53773913043478" rx="0" fill="#ffffff"/><rect x="564.0417391304347" y="1190.7547826086957" width="59.53773913043478" height="59.53773913043478" rx="0" fill="#ffffff"/><rect x="626.7130434782608" y="1190.7547826086957" width="59.53773913043478" height="59.53773913043478" rx="0" fill="#ffffff"/><rect x="689.3843478260869" y="1190.7547826086957" width="59.53773913043478" height="59.53773913043478" rx="0" fill="#ffffff"/><rect x="752.055652173913" y="1190.7547826086957" width="59.53773913043478" height="59.53773913043478" rx="0" fill="#ffffff"/><rect x="814.7269565217391" y="1190.7547826086957" width="59.53773913043478" height="59.53773913043478" rx="0" fill="#ffffff"/><rect x="877.3982608695652" y="1190.7547826086957" width="59.53773913043478" height="59.53773913043478" rx="0" fill="#ffffff"/><rect x="940.0695652173913" y="1190.7547826086957" width="59.53773913043478" height="59.53773913043478" rx="0" fill="#ffffff"/><rect x="1002.7408695652174" y="1190.7547826086957" width="59.53773913043478" height="59.53773913043478" rx="0" fill="#ffffff"/><rect x="1065.4121739130435" y="1190.7547826086957" width="59.53773913043478" height="59.53773913043478" rx="0" fill="#ffffff"/><rect x="1128.0834782608695" y="1190.7547826086957" width="59.53773913043478" height="59.53773913043478" rx="0" fill="#ffffff"/><rect x="1190.7547826086957" y="1190.7547826086957" width="59.53773913043478" height="59.53773913043478" rx="0" fill="#ffffff"/><rect x="1253.4260869565217" y="1190.7547826086957" width="59.53773913043478" height="59.53773913043478" rx="0" fill="#ffffff"/><rect x="1316.0973913043479" y="1190.7547826086957" width="59.53773913043478" height="59.53773913043478" rx="0" fill="#ffffff"/><rect x="1378.7686956521738" y="1190.7547826086957" width="59.53773913043478" height="59.53773913043478" rx="0" fill="#ffffff"/><rect x="0" y="1253.4260869565217" width="59.53773913043478" height="59.53773913043478" rx="0" fill="#ffffff"/><rect x="62.67130434782609" y="1253.4260869565217" width="59.53773913043478" height="59.53773913043478" rx="0" fill="#ffffff"/><rect x="125.34260869565217" y="1253.4260869565217" width="59.53773913043478" height="59.53773913043478" rx="0" fill="#ffffff"/><rect x="188.01391304347825" y="1253.4260869565217" width="59.53773913043478" height="59.53773913043478" rx="0" fill="#ffffff"/><rect x="250.68521739130435" y="1253.4260869565217" width="59.53773913043478" height="59.53773913043478" rx="0" fill="#ffffff"/><rect x="313.3565217391304" y="1253.4260869565217" width="59.53773913043478" height="59.53773913043478" rx="0" fill="#ffffff"/><rect x="376.0278260869565" y="1253.4260869565217" width="59.53773913043478" height="59.53773913043478" rx="0" fill="#ffffff"/><rect x="438.6991304347826" y="1253.4260869565217" width="59.53773913043478" height="59.53773913043478" rx="0" fill="#ffffff"/><rect x="501.3704347826087" y="1253.4260869565217" width="59.53773913043478" height="59.53773913043478" rx="0" fill="#ffffff"/><rect x="564.0417391304347" y="1253.4260869565217" width="59.53773913043478" height="59.53773913043478" rx="0" fill="#ffffff"/><rect x="626.7130434782608" y="1253.4260869565217" width="59.53773913043478" height="59.53773913043478" rx="0" fill="#ffffff"/><rect x="689.3843478260869" y="1253.4260869565217" width="59.53773913043478" height="59.53773913043478" rx="0" fill="#ffffff"/><rect x="752.055652173913" y="1253.4260869565217" width="59.53773913043478" height="59.53773913043478" rx="0" fill="#ffffff"/><rect x="814.7269565217391" y="1253.4260869565217" width="59.53773913043478" height="59.53773913043478" rx="0" fill="#ffffff"/><rect x="877.3982608695652" y="1253.4260869565217" width="59.53773913043478" height="59.53773913043478" rx="0" fill="#ffffff"/><rect x="940.0695652173913" y="1253.4260869565217" width="59.53773913043478" height="59.53773913043478" rx="0" fill="#ffffff"/><rect x="1002.7408695652174" y="1253.4260869565217" width="59.53773913043478" height="59.53773913043478" rx="0" fill="#ffffff"/><rect x="1065.4121739130435" y="1253.4260869565217" width="59.53773913043478" height="59.53773913043478" rx="0" fill="#ffffff"/><rect x="1128.0834782608695" y="1253.4260869565217" width="59.53773913043478" height="59.53773913043478" rx="0" fill="#ffffff"/><rect x="1190.7547826086957" y="1253.4260869565217" width="59.53773913043478" height="59.53773913043478" rx="0" fill="#ffffff"/><rect x="1253.4260869565217" y="1253.4260869565217" width="59.53773913043478" height="59.53773913043478" rx="0" fill="#ffffff"/><rect x="1316.0973913043479" y="1253.4260869565217" width="59.53773913043478" height="59.53773913043478" rx="0" fill="#ffffff"/><rect x="1378.7686956521738" y="1253.4260869565217" width="59.53773913043478" height="59.53773913043478" rx="0" fill="#ffffff"/><rect x="0" y="1316.0973913043479" width="59.53773913043478" height="59.53773913043478" rx="0" fill="#ffffff"/><rect x="62.67130434782609" y="1316.0973913043479" width="59.53773913043478" height="59.53773913043478" rx="0" fill="#ffffff"/><rect x="125.34260869565217" y="1316.0973913043479" width="59.53773913043478" height="59.53773913043478" rx="0" fill="#ffffff"/><rect x="188.01391304347825" y="1316.0973913043479" width="59.53773913043478" height="59.53773913043478" rx="0" fill="#ffffff"/><rect x="250.68521739130435" y="1316.0973913043479" width="59.53773913043478" height="59.53773913043478" rx="0" fill="#ffffff"/><rect x="313.3565217391304" y="1316.0973913043479" width="59.53773913043478" height="59.53773913043478" rx="0" fill="#ffffff"/><rect x="376.0278260869565" y="1316.0973913043479" width="59.53773913043478" height="59.53773913043478" rx="0" fill="#ffffff"/><rect x="438.6991304347826" y="1316.0973913043479" width="59.53773913043478" height="59.53773913043478" rx="0" fill="#ffffff"/><rect x="501.3704347826087" y="1316.0973913043479" width="59.53773913043478" height="59.53773913043478" rx="0" fill="#ffffff"/><rect x="564.0417391304347" y="1316.0973913043479" width="59.53773913043478" height="59.53773913043478" rx="0" fill="#ffffff"/><rect x="626.7130434782608" y="1316.0973913043479" width="59.53773913043478" height="59.53773913043478" rx="0" fill="#ffffff"/><rect x="689.3843478260869" y="1316.0973913043479" width="59.53773913043478" height="59.53773913043478" rx="0" fill="#ffffff"/><rect x="752.055652173913" y="1316.0973913043479" width="59.53773913043478" height="59.53773913043478" rx="0" fill="#ffffff"/><rect x="814.7269565217391" y="1316.0973913043479" width="59.53773913043478" height="59.53773913043478" rx="0" fill="#ffffff"/><rect x="877.3982608695652" y="1316.0973913043479" width="59.53773913043478" height="59.53773913043478" rx="0" fill="#ffffff"/><rect x="940.0695652173913" y="1316.0973913043479" width="59.53773913043478" height="59.53773913043478" rx="0" fill="#ffffff"/><rect x="1002.7408695652174" y="1316.0973913043479" width="59.53773913043478" height="59.53773913043478" rx="0" fill="#ffffff"/><rect x="1065.4121739130435" y="1316.0973913043479" width="59.53773913043478" height="59.53773913043478" rx="0" fill="#ffffff"/><rect x="1128.0834782608695" y="1316.0973913043479" width="59.53773913043478" height="59.53773913043478" rx="0" fill="#ffffff"/><rect x="1190.7547826086957" y="1316.0973913043479" width="59.53773913043478" height="59.53773913043478" rx="0" fill="#ffffff"/><rect x="1253.4260869565217" y="1316.0973913043479" width="59.53773913043478" height="59.53773913043478" rx="0" fill="#ffffff"/><rect x="1316.0973913043479" y="1316.0973913043479" width="59.53773913043478" height="59.53773913043478" rx="0" fill="#ffffff"/><rect x="1378.7686956521738" y="1316.0973913043479" width="59.53773913043478" height="59.53773913043478" rx="0" fill="#ffffff"/><rect x="0" y="1378.7686956521738" width="59.53773913043478" height="59.53773913043478" rx="0" fill="#ffffff"/><rect x="62.67130434782609" y="1378.7686956521738" width="59.53773913043478" height="59.53773913043478" rx="0" fill="#ffffff"/><rect x="125.34260869565217" y="1378.7686956521738" width="59.53773913043478" height="59.53773913043478" rx="0" fill="#ffffff"/><rect x="188.01391304347825" y="1378.7686956521738" width="59.53773913043478" height="59.53773913043478" rx="0" fill="#ffffff"/><rect x="250.68521739130435" y="1378.7686956521738" width="59.53773913043478" height="59.53773913043478" rx="0" fill="#ffffff"/><rect x="313.3565217391304" y="1378.7686956521738" width="59.53773913043478" height="59.53773913043478" rx="0" fill="#ffffff"/><rect x="376.0278260869565" y="1378.7686956521738" width="59.53773913043478" height="59.53773913043478" rx="0" fill="#ffffff"/><rect x="438.6991304347826" y="1378.7686956521738" width="59.53773913043478" height="59.53773913043478" rx="0" fill="#ffffff"/><rect x="501.3704347826087" y="1378.7686956521738" width="59.53773913043478" height="59.53773913043478" rx="0" fill="#ffffff"/><rect x="564.0417391304347" y="1378.7686956521738" width="59.53773913043478" height="59.53773913043478" rx="0" fill="#ffffff"/><rect x="626.7130434782608" y="1378.7686956521738" width="59.53773913043478" height="59.53773913043478" rx="0" fill="#ffffff"/><rect x="689.3843478260869" y="1378.7686956521738" width="59.53773913043478" height="59.53773913043478" rx="0" fill="#ffffff"/><rect x="752.055652173913" y="1378.7686956521738" width="59.53773913043478" height="59.53773913043478" rx="0" fill="#ffffff"/><rect x="814.7269565217391" y="1378.7686956521738" width="59.53773913043478" height="59.53773913043478" rx="0" fill="#ffffff"/><rect x="877.3982608695652" y="1378.7686956521738" width="59.53773913043478" height="59.53773913043478" rx="0" fill="#ffffff"/><rect x="940.0695652173913" y="1378.7686956521738" width="59.53773913043478" height="59.53773913043478" rx="0" fill="#ffffff"/><rect x="1002.7408695652174" y="1378.7686956521738" width="59.53773913043478" height="59.53773913043478" rx="0" fill="#ffffff"/><rect x="1065.4121739130435" y="1378.7686956521738" width="59.53773913043478" height="59.53773913043478" rx="0" fill="#ffffff"/><rect x="1128.0834782608695" y="1378.7686956521738" width="59.53773913043478" height="59.53773913043478" rx="0" fill="#ffffff"/><rect x="1190.7547826086957" y="1378.7686956521738" width="59.53773913043478" height="59.53773913043478" rx="0" fill="#ffffff"/><rect x="1253.4260869565217" y="1378.7686956521738" width="59.53773913043478" height="59.53773913043478" rx="0" fill="#ffffff"/><rect x="1316.0973913043479" y="1378.7686956521738" width="59.53773913043478" height="59.53773913043478" rx="0" fill="#ffffff"/><rect x="1378.7686956521738" y="1378.7686956521738" width="59.53773913043478" height="59.53773913043478" rx="0" fill="#ffffff"/><rect x="0" y="1441.44" width="59.53773913043478" height="59.53773913043478" rx="0" fill="#ffffff"/><rect x="62.67130434782609" y="1441.44" width="59.53773913043478" height="59.53773913043478" rx="0" fill="#ffffff"/><rect x="125.34260869565217" y="1441.44" width="59.53773913043478" height="59.53773913043478" rx="0" fill="#ffffff"/><rect x="188.01391304347825" y="1441.44" width="59.53773913043478" height="59.53773913043478" rx="0" fill="#ffffff"/><rect x="250.68521739130435" y="1441.44" width="59.53773913043478" height="59.53773913043478" rx="0" fill="#ffffff"/><rect x="313.3565217391304" y="1441.44" width="59.53773913043478" height="59.53773913043478" rx="0" fill="#ffffff"/><rect x="376.0278260869565" y="1441.44" width="59.53773913043478" height="59.53773913043478" rx="0" fill="#ffffff"/><rect x="438.6991304347826" y="1441.44" width="59.53773913043478" height="59.53773913043478" rx="0" fill="#ffffff"/><rect x="501.3704347826087" y="1441.44" width="59.53773913043478" height="59.53773913043478" rx="0" fill="#ffffff"/><rect x="564.0417391304347" y="1441.44" width="59.53773913043478" height="59.53773913043478" rx="0" fill="#ffffff"/><rect x="626.7130434782608" y="1441.44" width="59.53773913043478" height="59.53773913043478" rx="0" fill="#ffffff"/><rect x="689.3843478260869" y="1441.44" width="59.53773913043478" height="59.53773913043478" rx="0" fill="#ffffff"/><rect x="752.055652173913" y="1441.44" width="59.53773913043478" height="59.53773913043478" rx="0" fill="#ffffff"/><rect x="814.7269565217391" y="1441.44" width="59.53773913043478" height="59.53773913043478" rx="0" fill="#ffffff"/><rect x="877.3982608695652" y="1441.44" width="59.53773913043478" height="59.53773913043478" rx="0" fill="#ffffff"/><rect x="940.0695652173913" y="1441.44" width="59.53773913043478" height="59.53773913043478" rx="0" fill="#ffffff"/><rect x="1002.7408695652174" y="1441.44" width="59.53773913043478" height="59.53773913043478" rx="0" fill="#ffffff"/><rect x="1065.4121739130435" y="1441.44" width="59.53773913043478" height="59.53773913043478" rx="0" fill="#ffffff"/><rect x="1128.0834782608695" y="1441.44" width="59.53773913043478" height="59.53773913043478" rx="0" fill="#ffffff"/><rect x="1190.7547826086957" y="1441.44" width="59.53773913043478" height="59.53773913043478" rx="0" fill="#ffffff"/><rect x="1253.4260869565217" y="1441.44" width="59.53773913043478" height="59.53773913043478" rx="0" fill="#ffffff"/><rect x="1316.0973913043479" y="1441.44" width="59.53773913043478" height="59.53773913043478" rx="0" fill="#ffffff"/><rect x="1378.7686956521738" y="1441.44" width="59.53773913043478" height="59.53773913043478" rx="0" fill="#ffffff"/></svg>