<svg class="border shadow-md" viewBox="0 0 1441.44 810.8100000000001" style="width: 1441.44px; height: 810.81px;" xmlns="http://www.w3.org/2000/svg" preserveAspectRatio="none"><rect class="bg" id="bg" x="0" y="0" width="1441.44" height="810.8100000000001" fill="#ffffff"/><path d="M 0 -202.70250000000001 L 0 -202.70&#10;                L 48.05 -101.35&#10;                L 144.144 -202.70 L 144.144 -202.70&#10;                L 192.19 -37.70&#10;                L 288.288 -202.70 L 288.288 -202.70&#10;                L 358.29 -101.35&#10;                L 432.432 -202.70 L 432.432 -202.70&#10;                L 480.48 -101.35&#10;                L 576.576 -202.70 L 576.576 -202.70&#10;                L 624.62 -38.70&#10;                L 720.72 -202.70 L 720.72 -202.70&#10;                L 768.77 -101.35&#10;                L 864.864 -202.70 L 864.864 -202.70&#10;                L 934.86 -14.70&#10;                L 1009.008 -202.70 L 1009.008 -202.70&#10;                L 1062.01 -101.35&#10;                L 1153.152 -202.70 L 1153.152 -202.70&#10;                L 1231.15 -101.35&#10;                L 1297.296 -202.70 L 1297.296 -202.70&#10;                L 1354.30 -62.70&#10;                L 1441.44 -202.70 L 1441.44 -202.70&#10;                L 1489.49 -51.70&#10;                L 1585.584 -202.70  H 1491.44 V 910.8100000000001 H -100 V -202.70100 H 0 Z" fill="none" stroke="#FFF4F5" stroke-width="2"/><path d="M 0 0 L 0 0.00&#10;                L 48.05 146.00&#10;                L 144.144 0.00 L 144.144 0.00&#10;                L 192.19 101.35&#10;                L 288.288 0.00 L 288.288 0.00&#10;                L 336.34 101.35&#10;                L 432.432 0.00 L 432.432 0.00&#10;                L 501.43 171.00&#10;                L 576.576 0.00 L 576.576 0.00&#10;                L 624.62 101.35&#10;                L 720.72 0.00 L 720.72 0.00&#10;                L 768.77 101.35&#10;                L 864.864 0.00 L 864.864 0.00&#10;                L 935.86 127.00&#10;                L 1009.008 0.00 L 1009.008 0.00&#10;                L 1109.01 122.00&#10;                L 1153.152 0.00 L 1153.152 0.00&#10;                L 1234.15 101.35&#10;                L 1297.296 0.00 L 1297.296 0.00&#10;                L 1354.30 101.35&#10;                L 1441.44 0.00 L 1441.44 0.00&#10;                L 1489.49 180.00&#10;                L 1585.584 0.00  H 1491.44 V 910.8100000000001 H -100 V 0.00100 H 0 Z" fill="none" stroke="#f2e9ea" stroke-width="2"/><path d="M 0 202.70250000000001 L 0 202.70&#10;                L 107.00 317.70&#10;                L 144.144 202.70 L 144.144 202.70&#10;                L 238.14 318.70&#10;                L 288.288 202.70 L 288.288 202.70&#10;                L 336.34 308.70&#10;                L 432.432 202.70 L 432.432 202.70&#10;                L 524.43 304.05&#10;                L 576.576 202.70 L 576.576 202.70&#10;                L 657.58 326.70&#10;                L 720.72 202.70 L 720.72 202.70&#10;                L 768.77 392.70&#10;                L 864.864 202.70 L 864.864 202.70&#10;                L 946.86 304.05&#10;                L 1009.008 202.70 L 1009.008 202.70&#10;                L 1077.01 365.70&#10;                L 1153.152 202.70 L 1153.152 202.70&#10;                L 1201.20 383.70&#10;                L 1297.296 202.70 L 1297.296 202.70&#10;                L 1392.30 304.05&#10;                L 1441.44 202.70 L 1441.44 202.70&#10;                L 1489.49 304.05&#10;                L 1585.584 202.70  H 1491.44 V 910.8100000000001 H -100 V 202.70100 H 0 Z" fill="none" stroke="#e5dedf" stroke-width="2"/><path d="M 0 405.40500000000003 L 0 405.41&#10;                L 48.05 506.76&#10;                L 144.144 405.41 L 144.144 405.41&#10;                L 201.14 506.76&#10;                L 288.288 405.41 L 288.288 405.41&#10;                L 364.29 506.76&#10;                L 432.432 405.41 L 432.432 405.41&#10;                L 480.48 563.40&#10;                L 576.576 405.41 L 576.576 405.41&#10;                L 648.58 506.76&#10;                L 720.72 405.41 L 720.72 405.41&#10;                L 800.72 506.76&#10;                L 864.864 405.41 L 864.864 405.41&#10;                L 912.91 562.40&#10;                L 1009.008 405.41 L 1009.008 405.41&#10;                L 1077.01 583.40&#10;                L 1153.152 405.41 L 1153.152 405.41&#10;                L 1201.20 541.40&#10;                L 1297.296 405.41 L 1297.296 405.41&#10;                L 1345.34 506.76&#10;                L 1441.44 405.41 L 1441.44 405.41&#10;                L 1531.44 585.40&#10;                L 1585.584 405.41  H 1491.44 V 910.8100000000001 H -100 V 405.41100 H 0 Z" fill="none" stroke="#d8d3d4" stroke-width="2"/><path d="M 0 608.1075000000001 L 0 608.11&#10;                L 67.00 785.11&#10;                L 144.144 608.11 L 144.144 608.11&#10;                L 200.14 709.46&#10;                L 288.288 608.11 L 288.288 608.11&#10;                L 336.34 799.11&#10;                L 432.432 608.11 L 432.432 608.11&#10;                L 517.43 709.46&#10;                L 576.576 608.11 L 576.576 608.11&#10;                L 624.62 741.11&#10;                L 720.72 608.11 L 720.72 608.11&#10;                L 816.72 709.46&#10;                L 864.864 608.11 L 864.864 608.11&#10;                L 933.86 755.11&#10;                L 1009.008 608.11 L 1009.008 608.11&#10;                L 1106.01 709.46&#10;                L 1153.152 608.11 L 1153.152 608.11&#10;                L 1201.20 732.11&#10;                L 1297.296 608.11 L 1297.296 608.11&#10;                L 1354.30 709.46&#10;                L 1441.44 608.11 L 1441.44 608.11&#10;                L 1491.44 709.46&#10;                L 1585.584 608.11  H 1491.44 V 910.8100000000001 H -100 V 608.11100 H 0 Z" fill="none" stroke="#cbc8c9" stroke-width="2"/></svg>