<svg width="78" height="22" viewBox="0 0 78 22" fill="none" xmlns="http://www.w3.org/2000/svg">
<g clip-path="url(#clip0_1_2)">
<path d="M2.82173 16V6.54545H6.55185C7.26894 6.54545 7.87985 6.68241 8.38459 6.95632C8.88932 7.22715 9.27403 7.60417 9.53871 8.08736C9.80646 8.56747 9.94034 9.12145 9.94034 9.74929C9.94034 10.3771 9.80492 10.9311 9.53409 11.4112C9.26326 11.8913 8.87086 12.2653 8.35689 12.533C7.846 12.8008 7.22739 12.9347 6.50107 12.9347H4.12358V11.3327H6.17791C6.56262 11.3327 6.87962 11.2666 7.12891 11.1342C7.38127 10.9988 7.56901 10.8126 7.69212 10.5756C7.8183 10.3356 7.88139 10.0601 7.88139 9.74929C7.88139 9.43537 7.8183 9.16146 7.69212 8.92756C7.56901 8.69058 7.38127 8.50746 7.12891 8.3782C6.87654 8.24586 6.55646 8.17969 6.16868 8.17969H4.82067V16H2.82173ZM14.2914 16.1385C13.5743 16.1385 12.9541 15.9862 12.4309 15.6815C11.9108 15.3737 11.5092 14.9459 11.226 14.3981C10.9429 13.8472 10.8013 13.2086 10.8013 12.4822C10.8013 11.7498 10.9429 11.1096 11.226 10.5618C11.5092 10.0109 11.9108 9.5831 12.4309 9.27841C12.9541 8.97064 13.5743 8.81676 14.2914 8.81676C15.0085 8.81676 15.6271 8.97064 16.1472 9.27841C16.6704 9.5831 17.0736 10.0109 17.3567 10.5618C17.6399 11.1096 17.7814 11.7498 17.7814 12.4822C17.7814 13.2086 17.6399 13.8472 17.3567 14.3981C17.0736 14.9459 16.6704 15.3737 16.1472 15.6815C15.6271 15.9862 15.0085 16.1385 14.2914 16.1385ZM14.3006 14.6151C14.6268 14.6151 14.8992 14.5227 15.1177 14.3381C15.3362 14.1503 15.5009 13.8949 15.6117 13.5717C15.7256 13.2486 15.7825 12.8808 15.7825 12.4684C15.7825 12.056 15.7256 11.6882 15.6117 11.3651C15.5009 11.0419 15.3362 10.7865 15.1177 10.5987C14.8992 10.411 14.6268 10.3171 14.3006 10.3171C13.9713 10.3171 13.6943 10.411 13.4696 10.5987C13.248 10.7865 13.0803 11.0419 12.9664 11.3651C12.8556 11.6882 12.8002 12.056 12.8002 12.4684C12.8002 12.8808 12.8556 13.2486 12.9664 13.5717C13.0803 13.8949 13.248 14.1503 13.4696 14.3381C13.6943 14.5227 13.9713 14.6151 14.3006 14.6151ZM20.2812 16L18.3516 8.90909H20.3413L21.44 13.6733H21.5046L22.6495 8.90909H24.6023L25.7656 13.6456H25.8256L26.9059 8.90909H28.891L26.9659 16H24.8839L23.6651 11.5405H23.5774L22.3587 16H20.2812ZM32.9939 16.1385C32.2645 16.1385 31.6366 15.9908 31.1104 15.6953C30.5872 15.3968 30.184 14.9751 29.9008 14.4304C29.6177 13.8826 29.4761 13.2347 29.4761 12.4869C29.4761 11.7575 29.6177 11.1173 29.9008 10.5664C30.184 10.0155 30.5825 9.58617 31.0965 9.27841C31.6135 8.97064 32.2198 8.81676 32.9154 8.81676C33.3832 8.81676 33.8187 8.89216 34.2219 9.04297C34.6281 9.1907 34.982 9.41383 35.2836 9.71236C35.5883 10.0109 35.8253 10.3864 35.9946 10.8388C36.1639 11.2881 36.2485 11.8144 36.2485 12.4176V12.9577H30.2609V11.739H34.3973C34.3973 11.4558 34.3357 11.205 34.2126 10.9865C34.0895 10.768 33.9187 10.5972 33.7002 10.4741C33.4848 10.3479 33.2339 10.2848 32.9477 10.2848C32.6492 10.2848 32.3845 10.354 32.1537 10.4925C31.9259 10.628 31.7474 10.8111 31.6182 11.0419C31.4889 11.2696 31.4227 11.5236 31.4197 11.8036V12.9624C31.4197 13.3132 31.4843 13.6164 31.6135 13.8718C31.7459 14.1272 31.9321 14.3242 32.1721 14.4627C32.4122 14.6012 32.6969 14.6705 33.0262 14.6705C33.2447 14.6705 33.4448 14.6397 33.6263 14.5781C33.8079 14.5166 33.9633 14.4242 34.0926 14.3011C34.2219 14.178 34.3203 14.0272 34.3881 13.8487L36.2069 13.9688C36.1146 14.4058 35.9253 14.7874 35.6391 15.1136C35.356 15.4368 34.9897 15.6892 34.5404 15.8707C34.0941 16.0492 33.5786 16.1385 32.9939 16.1385ZM37.5319 16V8.90909H39.4385V10.1463H39.5123C39.6416 9.7062 39.8586 9.37382 40.1633 9.14915C40.468 8.9214 40.8188 8.80753 41.2158 8.80753C41.3143 8.80753 41.4205 8.81368 41.5344 8.82599C41.6482 8.8383 41.7483 8.85523 41.8344 8.87678V10.6218C41.7421 10.5941 41.6144 10.5695 41.4513 10.5479C41.2881 10.5264 41.1389 10.5156 41.0035 10.5156C40.7142 10.5156 40.4556 10.5787 40.2279 10.7049C40.0032 10.828 39.8247 11.0004 39.6924 11.2219C39.5631 11.4435 39.4985 11.699 39.4985 11.9883V16H37.5319Z" fill="#00B7AC"/>
<path d="M63.9201 9.63388C63.8678 9.43999 63.7908 9.26918 63.6893 9.12145C63.5877 8.97064 63.4631 8.84292 63.3153 8.73828C63.1676 8.63364 62.9983 8.55516 62.8075 8.50284C62.6167 8.44744 62.4074 8.41974 62.1797 8.41974C61.7211 8.41974 61.3241 8.53054 60.9886 8.75213C60.6562 8.97372 60.3993 9.29687 60.2177 9.72159C60.0361 10.1432 59.9453 10.6557 59.9453 11.2589C59.9453 11.8652 60.033 12.3822 60.2085 12.81C60.3839 13.2378 60.6378 13.564 60.9702 13.7887C61.3026 14.0134 61.7057 14.1257 62.1797 14.1257C62.5982 14.1257 62.9522 14.058 63.2415 13.9226C63.5339 13.7841 63.7554 13.5887 63.9062 13.3363C64.0571 13.0839 64.1325 12.7869 64.1325 12.4453L64.5572 12.4961H62.2582V10.8295H66.3345V12.0806C66.3345 12.927 66.1545 13.6518 65.7944 14.255C65.4374 14.8582 64.945 15.3214 64.3171 15.6445C63.6924 15.9677 62.9737 16.1293 62.1612 16.1293C61.2595 16.1293 60.467 15.9338 59.7837 15.543C59.1005 15.1521 58.5681 14.5951 58.1864 13.8718C57.8048 13.1455 57.614 12.2837 57.614 11.2866C57.614 10.511 57.7294 9.82315 57.9602 9.22301C58.1911 8.61979 58.5127 8.1089 58.9251 7.69034C59.3406 7.27178 59.8207 6.95478 60.3654 6.73935C60.9132 6.52391 61.5026 6.41619 62.1335 6.41619C62.6813 6.41619 63.1907 6.49467 63.6616 6.65163C64.1355 6.80859 64.5541 7.03018 64.9173 7.31641C65.2835 7.60263 65.5805 7.94271 65.8082 8.33665C66.036 8.73059 66.1776 9.163 66.233 9.63388H63.9201ZM70.9914 16.1339C70.2466 16.1339 69.6064 15.9815 69.0709 15.6768C68.5385 15.3691 68.1276 14.9413 67.8383 14.3935C67.5521 13.8426 67.409 13.204 67.409 12.4776C67.409 11.7482 67.5521 11.1096 67.8383 10.5618C68.1276 10.0109 68.5385 9.5831 69.0709 9.27841C69.6064 8.97064 70.2466 8.81676 70.9914 8.81676C71.7362 8.81676 72.3748 8.97064 72.9072 9.27841C73.4427 9.5831 73.8536 10.0109 74.1398 10.5618C74.4291 11.1096 74.5738 11.7482 74.5738 12.4776C74.5738 13.204 74.4291 13.8426 74.1398 14.3935C73.8536 14.9413 73.4427 15.3691 72.9072 15.6768C72.3748 15.9815 71.7362 16.1339 70.9914 16.1339ZM71.0052 14.4304C71.2761 14.4304 71.5054 14.3473 71.6931 14.1811C71.8808 14.0149 72.0239 13.7841 72.1224 13.4886C72.224 13.1932 72.2748 12.8516 72.2748 12.4638C72.2748 12.0698 72.224 11.7251 72.1224 11.4297C72.0239 11.1342 71.8808 10.9034 71.6931 10.7372C71.5054 10.571 71.2761 10.4879 71.0052 10.4879C70.7252 10.4879 70.4882 10.571 70.2943 10.7372C70.1035 10.9034 69.9573 11.1342 69.8557 11.4297C69.7573 11.7251 69.708 12.0698 69.708 12.4638C69.708 12.8516 69.7573 13.1932 69.8557 13.4886C69.9573 13.7841 70.1035 14.0149 70.2943 14.1811C70.4882 14.3473 70.7252 14.4304 71.0052 14.4304Z" fill="#00B7AC"/>
<g clip-path="url(#clip1_1_2)">
<path d="M44 6C44 5.23479 44.2923 4.49849 44.8173 3.94174C45.3422 3.38499 46.0601 3.04989 46.824 3.005L47 3L47.086 3L47.105 2.948C47.2066 2.69131 47.377 2.46764 47.5976 2.30161C47.8181 2.13558 48.0802 2.03364 48.355 2.007L48.5 2L51.5 2C51.8008 1.99995 52.0946 2.09031 52.3434 2.25936C52.5921 2.42841 52.7843 2.66834 52.895 2.948L52.913 3L53 3C53.7652 2.99996 54.5015 3.29232 55.0583 3.81728C55.615 4.34224 55.9501 5.06011 55.995 5.824L56 6L56 17C56 17.7652 55.7077 18.5015 55.1827 19.0583C54.6578 19.615 53.9399 19.9501 53.176 19.995L53 20L47 20C46.2348 20 45.4985 19.7077 44.9417 19.1827C44.385 18.6578 44.0499 17.9399 44.005 17.176L44 17L44 6Z" fill="#FF7F2A"/>
<path d="M46.7663 16V14.5597L50.1317 11.4435C50.418 11.1665 50.658 10.9173 50.8519 10.6957C51.0489 10.4741 51.1982 10.2571 51.2997 10.0447C51.4013 9.82931 51.4521 9.59695 51.4521 9.34766C51.4521 9.07067 51.389 8.83215 51.2628 8.6321C51.1366 8.42898 50.9643 8.27356 50.7457 8.16584C50.5272 8.05504 50.2795 7.99964 50.0025 7.99964C49.7132 7.99964 49.4608 8.05812 49.2454 8.17507C49.0299 8.29202 48.8638 8.45975 48.7468 8.67827C48.6299 8.89678 48.5714 9.15684 48.5714 9.45845H46.674C46.674 8.83984 46.814 8.30279 47.0941 7.8473C47.3742 7.39181 47.7666 7.03942 48.2713 6.79013C48.776 6.54084 49.3577 6.41619 50.0163 6.41619C50.6934 6.41619 51.2828 6.53622 51.7844 6.77628C52.2892 7.01326 52.6816 7.34257 52.9616 7.7642C53.2417 8.18584 53.3817 8.66903 53.3817 9.21378C53.3817 9.57079 53.311 9.92318 53.1694 10.271C53.0309 10.6187 52.7831 11.005 52.4261 11.4297C52.0691 11.8513 51.5659 12.3576 50.9165 12.9485L49.5362 14.3011V14.3658H53.5064V16H46.7663Z" fill="white"/>
</g>
</g>
<defs>
<clipPath id="clip0_1_2">
<rect width="78" height="22" fill="white"/>
</clipPath>
<clipPath id="clip1_1_2">
<rect width="24" height="24" fill="white" transform="translate(38 23) rotate(-90)"/>
</clipPath>
</defs>
</svg>
